<mxfile host="app.diagrams.net" modified="2021-05-10T05:35:05.580Z" agent="5.0 (Macintosh; Intel Mac OS X 10_15_7) AppleWebKit/537.36 (KHTML, like Gecko) Chrome/90.0.4430.93 Safari/537.36" etag="IpL-D9FHjX2vQWhknJEq" version="14.6.11" type="github">
  <diagram id="F1IjriLswVZwK1uyiNTr" name="Page-1">
    <mxGraphModel dx="1426" dy="1938" grid="1" gridSize="10" guides="1" tooltips="1" connect="1" arrows="1" fold="1" page="1" pageScale="1" pageWidth="827" pageHeight="1169" math="0" shadow="0">
      <root>
        <mxCell id="0" />
        <mxCell id="1" parent="0" />
        <mxCell id="KBDyYr66GcoAA7yZrf-w-1" value="" style="rounded=1;whiteSpace=wrap;html=1;" vertex="1" parent="1">
          <mxGeometry x="1223.5" y="1371" width="240" height="65" as="geometry" />
        </mxCell>
        <mxCell id="KBDyYr66GcoAA7yZrf-w-2" style="edgeStyle=none;rounded=0;orthogonalLoop=1;jettySize=auto;html=1;exitX=1;exitY=0.25;exitDx=0;exitDy=0;entryX=0.25;entryY=1;entryDx=0;entryDy=0;" edge="1" parent="1" source="KBDyYr66GcoAA7yZrf-w-3" target="KBDyYr66GcoAA7yZrf-w-66">
          <mxGeometry relative="1" as="geometry" />
        </mxCell>
        <mxCell id="KBDyYr66GcoAA7yZrf-w-3" value="" style="rounded=1;whiteSpace=wrap;html=1;" vertex="1" parent="1">
          <mxGeometry x="699" y="710" width="161" height="360" as="geometry" />
        </mxCell>
        <mxCell id="KBDyYr66GcoAA7yZrf-w-4" value="" style="rounded=1;whiteSpace=wrap;html=1;" vertex="1" parent="1">
          <mxGeometry x="335" y="673" width="245" height="487" as="geometry" />
        </mxCell>
        <mxCell id="KBDyYr66GcoAA7yZrf-w-5" value="" style="rounded=1;whiteSpace=wrap;html=1;" vertex="1" parent="1">
          <mxGeometry x="39" y="-80" width="921" height="390" as="geometry" />
        </mxCell>
        <mxCell id="KBDyYr66GcoAA7yZrf-w-6" value="" style="rounded=1;whiteSpace=wrap;html=1;" vertex="1" parent="1">
          <mxGeometry x="390" y="460" width="520" height="110" as="geometry" />
        </mxCell>
        <mxCell id="KBDyYr66GcoAA7yZrf-w-7" value="" style="rounded=1;whiteSpace=wrap;html=1;" vertex="1" parent="1">
          <mxGeometry x="14" y="460" width="336" height="110" as="geometry" />
        </mxCell>
        <mxCell id="KBDyYr66GcoAA7yZrf-w-8" value="JIRA" style="rounded=1;whiteSpace=wrap;html=1;fillColor=#fff2cc;strokeColor=#d6b656;" vertex="1" parent="1">
          <mxGeometry x="150" y="90" width="100" height="40" as="geometry" />
        </mxCell>
        <mxCell id="KBDyYr66GcoAA7yZrf-w-9" value="dev(开发环境)" style="rounded=1;whiteSpace=wrap;html=1;fillColor=#d5e8d4;strokeColor=#82b366;" vertex="1" parent="1">
          <mxGeometry x="50" y="490" width="94" height="50" as="geometry" />
        </mxCell>
        <mxCell id="KBDyYr66GcoAA7yZrf-w-10" value="Test(测试环境)" style="rounded=1;whiteSpace=wrap;html=1;fillColor=#647687;strokeColor=#314354;fontColor=#ffffff;" vertex="1" parent="1">
          <mxGeometry x="213" y="490" width="102" height="50" as="geometry" />
        </mxCell>
        <mxCell id="KBDyYr66GcoAA7yZrf-w-11" style="edgeStyle=none;rounded=0;orthogonalLoop=1;jettySize=auto;html=1;exitX=0.5;exitY=0;exitDx=0;exitDy=0;" edge="1" parent="1" source="KBDyYr66GcoAA7yZrf-w-12">
          <mxGeometry relative="1" as="geometry">
            <mxPoint x="470" y="430" as="targetPoint" />
          </mxGeometry>
        </mxCell>
        <mxCell id="KBDyYr66GcoAA7yZrf-w-12" value="预发布" style="rounded=1;whiteSpace=wrap;html=1;fillColor=#f0a30a;strokeColor=#BD7000;fontColor=#ffffff;" vertex="1" parent="1">
          <mxGeometry x="412" y="490" width="116" height="50" as="geometry" />
        </mxCell>
        <mxCell id="KBDyYr66GcoAA7yZrf-w-13" value="持续集成、持续部署" style="rounded=1;whiteSpace=wrap;html=1;fillColor=#e1d5e7;strokeColor=#9673a6;" vertex="1" parent="1">
          <mxGeometry x="260" y="245" width="110" height="50" as="geometry" />
        </mxCell>
        <mxCell id="KBDyYr66GcoAA7yZrf-w-14" value="Confluence" style="rounded=1;whiteSpace=wrap;html=1;fillColor=#fff2cc;strokeColor=#d6b656;" vertex="1" parent="1">
          <mxGeometry x="150" y="140" width="100" height="40" as="geometry" />
        </mxCell>
        <mxCell id="KBDyYr66GcoAA7yZrf-w-15" value="工单" style="text;html=1;resizable=0;points=[];autosize=1;align=left;verticalAlign=top;spacingTop=-4;" vertex="1" parent="1">
          <mxGeometry x="66" y="100" width="40" height="20" as="geometry" />
        </mxCell>
        <mxCell id="KBDyYr66GcoAA7yZrf-w-16" value="文档wiki" style="text;html=1;resizable=0;points=[];autosize=1;align=left;verticalAlign=top;spacingTop=-4;" vertex="1" parent="1">
          <mxGeometry x="66" y="150" width="60" height="20" as="geometry" />
        </mxCell>
        <mxCell id="KBDyYr66GcoAA7yZrf-w-17" value="Gitlab" style="rounded=1;whiteSpace=wrap;html=1;fillColor=#f8cecc;strokeColor=#b85450;" vertex="1" parent="1">
          <mxGeometry x="430" y="130" width="100" height="40" as="geometry" />
        </mxCell>
        <mxCell id="KBDyYr66GcoAA7yZrf-w-18" value="代码管理工具" style="text;html=1;resizable=0;points=[];autosize=1;align=left;verticalAlign=top;spacingTop=-4;fillColor=#fff2cc;strokeColor=#d6b656;" vertex="1" parent="1">
          <mxGeometry x="435" y="93" width="90" height="20" as="geometry" />
        </mxCell>
        <mxCell id="KBDyYr66GcoAA7yZrf-w-19" value="Jenkins（内网）&lt;br&gt;Ansible" style="rounded=1;whiteSpace=wrap;html=1;fillColor=#f8cecc;strokeColor=#b85450;" vertex="1" parent="1">
          <mxGeometry x="144" y="340" width="100" height="50" as="geometry" />
        </mxCell>
        <mxCell id="KBDyYr66GcoAA7yZrf-w-20" value="备份" style="text;html=1;resizable=0;points=[];autosize=1;align=left;verticalAlign=top;spacingTop=-4;fillColor=#f8cecc;strokeColor=#b85450;" vertex="1" parent="1">
          <mxGeometry x="460" y="187" width="40" height="20" as="geometry" />
        </mxCell>
        <mxCell id="KBDyYr66GcoAA7yZrf-w-21" value="存储" style="rounded=1;whiteSpace=wrap;html=1;fillColor=#f8cecc;strokeColor=#b85450;" vertex="1" parent="1">
          <mxGeometry x="435" y="10" width="100" height="40" as="geometry" />
        </mxCell>
        <mxCell id="KBDyYr66GcoAA7yZrf-w-22" value="Openldap" style="rounded=1;whiteSpace=wrap;html=1;fillColor=#f8cecc;strokeColor=#b85450;" vertex="1" parent="1">
          <mxGeometry x="435" y="-50" width="100" height="40" as="geometry" />
        </mxCell>
        <mxCell id="KBDyYr66GcoAA7yZrf-w-23" value="Gengmeiapp" style="rounded=1;whiteSpace=wrap;html=1;fillColor=#f8cecc;strokeColor=#b85450;" vertex="1" parent="1">
          <mxGeometry x="590" y="130" width="90" height="30" as="geometry" />
        </mxCell>
        <mxCell id="KBDyYr66GcoAA7yZrf-w-24" value="GM_android" style="rounded=1;whiteSpace=wrap;html=1;fillColor=#f8cecc;strokeColor=#b85450;" vertex="1" parent="1">
          <mxGeometry x="710" y="75" width="90" height="30" as="geometry" />
        </mxCell>
        <mxCell id="KBDyYr66GcoAA7yZrf-w-25" value="GM_ios" style="rounded=1;whiteSpace=wrap;html=1;fillColor=#f8cecc;strokeColor=#b85450;" vertex="1" parent="1">
          <mxGeometry x="710" y="115" width="90" height="30" as="geometry" />
        </mxCell>
        <mxCell id="KBDyYr66GcoAA7yZrf-w-26" value="GM_web" style="rounded=1;whiteSpace=wrap;html=1;fillColor=#f8cecc;strokeColor=#b85450;" vertex="1" parent="1">
          <mxGeometry x="710" y="167" width="90" height="30" as="geometry" />
        </mxCell>
        <mxCell id="KBDyYr66GcoAA7yZrf-w-27" value="GM_weichat" style="rounded=1;whiteSpace=wrap;html=1;fillColor=#f8cecc;strokeColor=#b85450;" vertex="1" parent="1">
          <mxGeometry x="710" y="220" width="90" height="30" as="geometry" />
        </mxCell>
        <mxCell id="KBDyYr66GcoAA7yZrf-w-28" value="GM_gateway" style="rounded=1;whiteSpace=wrap;html=1;fillColor=#f8cecc;strokeColor=#b85450;" vertex="1" parent="1">
          <mxGeometry x="710" y="265" width="90" height="30" as="geometry" />
        </mxCell>
        <mxCell id="KBDyYr66GcoAA7yZrf-w-29" value="GM_usercenter" style="rounded=1;whiteSpace=wrap;html=1;fillColor=#f8cecc;strokeColor=#b85450;" vertex="1" parent="1">
          <mxGeometry x="827" y="75" width="90" height="30" as="geometry" />
        </mxCell>
        <mxCell id="KBDyYr66GcoAA7yZrf-w-30" value="GM_orderinfo" style="rounded=1;whiteSpace=wrap;html=1;fillColor=#f8cecc;strokeColor=#b85450;" vertex="1" parent="1">
          <mxGeometry x="830" y="113" width="90" height="30" as="geometry" />
        </mxCell>
        <mxCell id="KBDyYr66GcoAA7yZrf-w-31" value="GM_nothigpay" style="rounded=1;whiteSpace=wrap;html=1;fillColor=#f8cecc;strokeColor=#b85450;" vertex="1" parent="1">
          <mxGeometry x="830" y="160" width="90" height="30" as="geometry" />
        </mxCell>
        <mxCell id="KBDyYr66GcoAA7yZrf-w-32" value="灰度（真实用户）" style="rounded=1;whiteSpace=wrap;html=1;fillColor=#76608a;strokeColor=#432D57;fontColor=#ffffff;" vertex="1" parent="1">
          <mxGeometry x="577" y="490" width="116" height="50" as="geometry" />
        </mxCell>
        <mxCell id="KBDyYr66GcoAA7yZrf-w-33" value="生产环境" style="rounded=1;whiteSpace=wrap;html=1;fillColor=#e51400;strokeColor=#B20000;fontColor=#ffffff;" vertex="1" parent="1">
          <mxGeometry x="759" y="490" width="116" height="50" as="geometry" />
        </mxCell>
        <mxCell id="KBDyYr66GcoAA7yZrf-w-34" value="不同tag" style="text;html=1;resizable=0;points=[];autosize=1;align=left;verticalAlign=top;spacingTop=-4;" vertex="1" parent="1">
          <mxGeometry x="260" y="345" width="60" height="20" as="geometry" />
        </mxCell>
        <mxCell id="KBDyYr66GcoAA7yZrf-w-35" value="ansible&amp;nbsp; &amp;nbsp;hosts" style="text;html=1;resizable=0;points=[];autosize=1;align=left;verticalAlign=top;spacingTop=-4;" vertex="1" parent="1">
          <mxGeometry x="149" y="412" width="90" height="20" as="geometry" />
        </mxCell>
        <mxCell id="KBDyYr66GcoAA7yZrf-w-36" value="公司内网" style="text;html=1;resizable=0;points=[];autosize=1;align=left;verticalAlign=top;spacingTop=-4;" vertex="1" parent="1">
          <mxGeometry x="39" y="425" width="60" height="20" as="geometry" />
        </mxCell>
        <mxCell id="KBDyYr66GcoAA7yZrf-w-37" value="IDC机房" style="text;html=1;resizable=0;points=[];autosize=1;align=left;verticalAlign=top;spacingTop=-4;" vertex="1" parent="1">
          <mxGeometry x="540" y="425" width="60" height="20" as="geometry" />
        </mxCell>
        <mxCell id="KBDyYr66GcoAA7yZrf-w-38" style="rounded=0;orthogonalLoop=1;jettySize=auto;html=1;exitX=0.5;exitY=0;exitDx=0;exitDy=0;entryX=0.75;entryY=1;entryDx=0;entryDy=0;" edge="1" parent="1" source="KBDyYr66GcoAA7yZrf-w-39" target="KBDyYr66GcoAA7yZrf-w-17">
          <mxGeometry relative="1" as="geometry" />
        </mxCell>
        <mxCell id="KBDyYr66GcoAA7yZrf-w-39" value="Jenkins（外网）&lt;br&gt;Ansible" style="rounded=1;whiteSpace=wrap;html=1;fillColor=#f5f5f5;strokeColor=#666666;gradientColor=#b3b3b3;" vertex="1" parent="1">
          <mxGeometry x="564" y="347" width="146" height="63" as="geometry" />
        </mxCell>
        <mxCell id="KBDyYr66GcoAA7yZrf-w-40" value="公司" style="text;html=1;resizable=0;points=[];autosize=1;align=left;verticalAlign=top;spacingTop=-4;" vertex="1" parent="1">
          <mxGeometry x="222" y="-106" width="40" height="20" as="geometry" />
        </mxCell>
        <mxCell id="KBDyYr66GcoAA7yZrf-w-41" value="Text" style="text;html=1;resizable=0;points=[];autosize=1;align=left;verticalAlign=top;spacingTop=-4;" vertex="1" parent="1">
          <mxGeometry x="975" y="280" width="40" height="20" as="geometry" />
        </mxCell>
        <mxCell id="KBDyYr66GcoAA7yZrf-w-42" value="配置文件管理" style="text;html=1;resizable=0;points=[];autosize=1;align=left;verticalAlign=top;spacingTop=-4;fillColor=#f8cecc;strokeColor=#b85450;" vertex="1" parent="1">
          <mxGeometry x="345" y="377" width="90" height="20" as="geometry" />
        </mxCell>
        <mxCell id="KBDyYr66GcoAA7yZrf-w-43" value="GM_weichat" style="rounded=1;whiteSpace=wrap;html=1;fillColor=#f8cecc;strokeColor=#b85450;" vertex="1" parent="1">
          <mxGeometry x="36" y="680" width="90" height="30" as="geometry" />
        </mxCell>
        <mxCell id="KBDyYr66GcoAA7yZrf-w-44" value="web-1" style="rounded=1;whiteSpace=wrap;html=1;fillColor=#f0a30a;strokeColor=#BD7000;fontColor=#ffffff;" vertex="1" parent="1">
          <mxGeometry x="26" y="610" width="124" height="50" as="geometry" />
        </mxCell>
        <mxCell id="KBDyYr66GcoAA7yZrf-w-45" value="Python requests 获取程序API接口数据&lt;br&gt;判断服务是否启动成功" style="text;html=1;resizable=0;points=[];autosize=1;align=left;verticalAlign=top;spacingTop=-4;fillColor=#e51400;strokeColor=#B20000;fontColor=#ffffff;" vertex="1" parent="1">
          <mxGeometry x="24" y="744" width="220" height="30" as="geometry" />
        </mxCell>
        <mxCell id="KBDyYr66GcoAA7yZrf-w-46" value="DB" style="rounded=1;whiteSpace=wrap;html=1;fillColor=#76608a;strokeColor=#432D57;fontColor=#ffffff;" vertex="1" parent="1">
          <mxGeometry x="33" y="800" width="116" height="40" as="geometry" />
        </mxCell>
        <mxCell id="KBDyYr66GcoAA7yZrf-w-47" value="nginx" style="rounded=1;whiteSpace=wrap;html=1;fillColor=#d0cee2;strokeColor=#56517e;" vertex="1" parent="1">
          <mxGeometry x="391" y="690" width="90" height="30" as="geometry" />
        </mxCell>
        <mxCell id="KBDyYr66GcoAA7yZrf-w-48" value="预发布" style="rounded=1;whiteSpace=wrap;html=1;fillColor=#f0a30a;strokeColor=#BD7000;fontColor=#ffffff;" vertex="1" parent="1">
          <mxGeometry x="395" y="630" width="116" height="30" as="geometry" />
        </mxCell>
        <mxCell id="KBDyYr66GcoAA7yZrf-w-49" value="GM_gateway" style="rounded=1;whiteSpace=wrap;html=1;fillColor=#f8cecc;strokeColor=#b85450;" vertex="1" parent="1">
          <mxGeometry x="356" y="745.5" width="90" height="30" as="geometry" />
        </mxCell>
        <mxCell id="KBDyYr66GcoAA7yZrf-w-50" value="GM_weichat" style="rounded=1;whiteSpace=wrap;html=1;fillColor=#f8cecc;strokeColor=#b85450;" vertex="1" parent="1">
          <mxGeometry x="356" y="800.5" width="90" height="30" as="geometry" />
        </mxCell>
        <mxCell id="KBDyYr66GcoAA7yZrf-w-51" value="GM_orderinfo" style="rounded=1;whiteSpace=wrap;html=1;fillColor=#f8cecc;strokeColor=#b85450;" vertex="1" parent="1">
          <mxGeometry x="469" y="855.5" width="90" height="30" as="geometry" />
        </mxCell>
        <mxCell id="KBDyYr66GcoAA7yZrf-w-52" value="GM_usercenter" style="rounded=1;whiteSpace=wrap;html=1;fillColor=#f8cecc;strokeColor=#b85450;" vertex="1" parent="1">
          <mxGeometry x="356" y="855.5" width="90" height="30" as="geometry" />
        </mxCell>
        <mxCell id="KBDyYr66GcoAA7yZrf-w-53" value="GM_nothigpay" style="rounded=1;whiteSpace=wrap;html=1;fillColor=#f8cecc;strokeColor=#b85450;" vertex="1" parent="1">
          <mxGeometry x="466" y="794.5" width="90" height="30" as="geometry" />
        </mxCell>
        <mxCell id="KBDyYr66GcoAA7yZrf-w-54" value="GM_web+nginx" style="rounded=1;whiteSpace=wrap;html=1;fillColor=#f8cecc;strokeColor=#b85450;" vertex="1" parent="1">
          <mxGeometry x="466" y="745.5" width="90" height="30" as="geometry" />
        </mxCell>
        <mxCell id="KBDyYr66GcoAA7yZrf-w-55" value="Zookeeper" style="rounded=1;whiteSpace=wrap;html=1;fillColor=#dae8fc;strokeColor=#6c8ebf;gradientColor=#7ea6e0;" vertex="1" parent="1">
          <mxGeometry x="736" y="1343.5" width="90" height="30" as="geometry" />
        </mxCell>
        <mxCell id="KBDyYr66GcoAA7yZrf-w-56" value="Zookeeper" style="rounded=1;whiteSpace=wrap;html=1;fillColor=#d0cee2;strokeColor=#56517e;" vertex="1" parent="1">
          <mxGeometry x="474" y="905" width="90" height="30" as="geometry" />
        </mxCell>
        <mxCell id="KBDyYr66GcoAA7yZrf-w-57" value="Zookeeper" style="rounded=1;whiteSpace=wrap;html=1;fillColor=#d0cee2;strokeColor=#56517e;" vertex="1" parent="1">
          <mxGeometry x="363" y="905" width="90" height="30" as="geometry" />
        </mxCell>
        <mxCell id="KBDyYr66GcoAA7yZrf-w-58" value="RabbitMQ" style="rounded=1;whiteSpace=wrap;html=1;fillColor=#fad9d5;strokeColor=#ae4132;" vertex="1" parent="1">
          <mxGeometry x="363" y="1000.5" width="90" height="30" as="geometry" />
        </mxCell>
        <mxCell id="KBDyYr66GcoAA7yZrf-w-59" value="RabbitMQ" style="rounded=1;whiteSpace=wrap;html=1;fillColor=#fad9d5;strokeColor=#ae4132;" vertex="1" parent="1">
          <mxGeometry x="469" y="1000.5" width="90" height="30" as="geometry" />
        </mxCell>
        <mxCell id="KBDyYr66GcoAA7yZrf-w-60" value="Mysql-Master" style="rounded=1;whiteSpace=wrap;html=1;fillColor=#b1ddf0;strokeColor=#10739e;" vertex="1" parent="1">
          <mxGeometry x="364" y="1050.5" width="90" height="30" as="geometry" />
        </mxCell>
        <mxCell id="KBDyYr66GcoAA7yZrf-w-61" value="预发布域名" style="text;html=1;resizable=0;points=[];autosize=1;align=left;verticalAlign=top;spacingTop=-4;fillColor=#fa6800;strokeColor=#C73500;fontColor=#ffffff;" vertex="1" parent="1">
          <mxGeometry x="427" y="415" width="80" height="20" as="geometry" />
        </mxCell>
        <mxCell id="KBDyYr66GcoAA7yZrf-w-62" value="Mysql-slave" style="rounded=1;whiteSpace=wrap;html=1;fillColor=#b1ddf0;strokeColor=#10739e;" vertex="1" parent="1">
          <mxGeometry x="474" y="1050.5" width="90" height="30" as="geometry" />
        </mxCell>
        <mxCell id="KBDyYr66GcoAA7yZrf-w-63" value="redis-master" style="rounded=1;whiteSpace=wrap;html=1;fillColor=#fad9d5;strokeColor=#ae4132;" vertex="1" parent="1">
          <mxGeometry x="363" y="1100" width="90" height="30" as="geometry" />
        </mxCell>
        <mxCell id="KBDyYr66GcoAA7yZrf-w-64" value="redis-slave" style="rounded=1;whiteSpace=wrap;html=1;fillColor=#fad9d5;strokeColor=#ae4132;" vertex="1" parent="1">
          <mxGeometry x="480" y="1100.5" width="90" height="30" as="geometry" />
        </mxCell>
        <mxCell id="KBDyYr66GcoAA7yZrf-w-65" style="edgeStyle=none;rounded=0;orthogonalLoop=1;jettySize=auto;html=1;exitX=0;exitY=0.25;exitDx=0;exitDy=0;entryX=0.994;entryY=0.084;entryDx=0;entryDy=0;entryPerimeter=0;" edge="1" parent="1" source="KBDyYr66GcoAA7yZrf-w-66" target="KBDyYr66GcoAA7yZrf-w-3">
          <mxGeometry relative="1" as="geometry" />
        </mxCell>
        <mxCell id="KBDyYr66GcoAA7yZrf-w-66" value="tengine+keepalived" style="rounded=1;whiteSpace=wrap;html=1;fillColor=#fad7ac;strokeColor=#b46504;" vertex="1" parent="1">
          <mxGeometry x="917" y="675" width="107" height="30" as="geometry" />
        </mxCell>
        <mxCell id="KBDyYr66GcoAA7yZrf-w-67" value="tengine+keepalived" style="rounded=1;whiteSpace=wrap;html=1;fillColor=#fad7ac;strokeColor=#b46504;" vertex="1" parent="1">
          <mxGeometry x="1070" y="675.5" width="110" height="30" as="geometry" />
        </mxCell>
        <mxCell id="KBDyYr66GcoAA7yZrf-w-68" value="GM_gateway" style="rounded=1;whiteSpace=wrap;html=1;fillColor=#f8cecc;strokeColor=#b85450;" vertex="1" parent="1">
          <mxGeometry x="950" y="846" width="90" height="30" as="geometry" />
        </mxCell>
        <mxCell id="KBDyYr66GcoAA7yZrf-w-69" value="GM_gateway" style="rounded=1;whiteSpace=wrap;html=1;fillColor=#f8cecc;strokeColor=#b85450;" vertex="1" parent="1">
          <mxGeometry x="950" y="895.5" width="90" height="30" as="geometry" />
        </mxCell>
        <mxCell id="KBDyYr66GcoAA7yZrf-w-70" value="GM_gateway" style="rounded=1;whiteSpace=wrap;html=1;fillColor=#f8cecc;strokeColor=#b85450;" vertex="1" parent="1">
          <mxGeometry x="950" y="945" width="90" height="30" as="geometry" />
        </mxCell>
        <mxCell id="KBDyYr66GcoAA7yZrf-w-71" value="GM_gateway" style="rounded=1;whiteSpace=wrap;html=1;fillColor=#f8cecc;strokeColor=#b85450;" vertex="1" parent="1">
          <mxGeometry x="950" y="986" width="90" height="30" as="geometry" />
        </mxCell>
        <mxCell id="KBDyYr66GcoAA7yZrf-w-72" value="GM_weichat" style="rounded=1;whiteSpace=wrap;html=1;fillColor=#b1ddf0;strokeColor=#10739e;" vertex="1" parent="1">
          <mxGeometry x="1112.5" y="759" width="90" height="30" as="geometry" />
        </mxCell>
        <mxCell id="KBDyYr66GcoAA7yZrf-w-73" value="GM_weichat" style="rounded=1;whiteSpace=wrap;html=1;fillColor=#b1ddf0;strokeColor=#10739e;" vertex="1" parent="1">
          <mxGeometry x="1217.5" y="756" width="90" height="30" as="geometry" />
        </mxCell>
        <mxCell id="KBDyYr66GcoAA7yZrf-w-74" value="GM_weichat" style="rounded=1;whiteSpace=wrap;html=1;fillColor=#b1ddf0;strokeColor=#10739e;" vertex="1" parent="1">
          <mxGeometry x="1112.5" y="805.5" width="90" height="30" as="geometry" />
        </mxCell>
        <mxCell id="KBDyYr66GcoAA7yZrf-w-75" value="GM_weichat" style="rounded=1;whiteSpace=wrap;html=1;fillColor=#b1ddf0;strokeColor=#10739e;" vertex="1" parent="1">
          <mxGeometry x="1222.5" y="805.5" width="90" height="30" as="geometry" />
        </mxCell>
        <mxCell id="KBDyYr66GcoAA7yZrf-w-76" value="GM_weichat" style="rounded=1;whiteSpace=wrap;html=1;fillColor=#b1ddf0;strokeColor=#10739e;" vertex="1" parent="1">
          <mxGeometry x="1112.5" y="846" width="90" height="30" as="geometry" />
        </mxCell>
        <mxCell id="KBDyYr66GcoAA7yZrf-w-77" value="GM_weichat" style="rounded=1;whiteSpace=wrap;html=1;fillColor=#b1ddf0;strokeColor=#10739e;" vertex="1" parent="1">
          <mxGeometry x="1222.5" y="846" width="90" height="30" as="geometry" />
        </mxCell>
        <mxCell id="KBDyYr66GcoAA7yZrf-w-78" value="灰度" style="rounded=1;whiteSpace=wrap;html=1;fillColor=#76608a;strokeColor=#432D57;fontColor=#ffffff;" vertex="1" parent="1">
          <mxGeometry x="727" y="630" width="96" height="40" as="geometry" />
        </mxCell>
        <mxCell id="KBDyYr66GcoAA7yZrf-w-79" value="生产环境" style="rounded=1;whiteSpace=wrap;html=1;fillColor=#e51400;strokeColor=#B20000;fontColor=#ffffff;" vertex="1" parent="1">
          <mxGeometry x="984" y="595" width="116" height="50" as="geometry" />
        </mxCell>
        <mxCell id="KBDyYr66GcoAA7yZrf-w-80" value="GM_gateway" style="rounded=1;whiteSpace=wrap;html=1;fillColor=#f8cecc;strokeColor=#b85450;" vertex="1" parent="1">
          <mxGeometry x="727" y="741" width="90" height="30" as="geometry" />
        </mxCell>
        <mxCell id="KBDyYr66GcoAA7yZrf-w-81" value="GM_weichat" style="rounded=1;whiteSpace=wrap;html=1;fillColor=#f8cecc;strokeColor=#b85450;" vertex="1" parent="1">
          <mxGeometry x="727" y="795.5" width="90" height="30" as="geometry" />
        </mxCell>
        <mxCell id="KBDyYr66GcoAA7yZrf-w-82" value="GM_nothigpay" style="rounded=1;whiteSpace=wrap;html=1;fillColor=#f8cecc;strokeColor=#b85450;" vertex="1" parent="1">
          <mxGeometry x="727" y="845" width="90" height="30" as="geometry" />
        </mxCell>
        <mxCell id="KBDyYr66GcoAA7yZrf-w-83" value="GM_usercenter" style="rounded=1;whiteSpace=wrap;html=1;fillColor=#f8cecc;strokeColor=#b85450;" vertex="1" parent="1">
          <mxGeometry x="727" y="896.5" width="90" height="30" as="geometry" />
        </mxCell>
        <mxCell id="KBDyYr66GcoAA7yZrf-w-84" value="GM_orderinfo" style="rounded=1;whiteSpace=wrap;html=1;fillColor=#f8cecc;strokeColor=#b85450;" vertex="1" parent="1">
          <mxGeometry x="727" y="940.5" width="90" height="30" as="geometry" />
        </mxCell>
        <mxCell id="KBDyYr66GcoAA7yZrf-w-85" value="GM_web" style="rounded=1;whiteSpace=wrap;html=1;fillColor=#f8cecc;strokeColor=#b85450;" vertex="1" parent="1">
          <mxGeometry x="727" y="984.5" width="90" height="30" as="geometry" />
        </mxCell>
        <mxCell id="KBDyYr66GcoAA7yZrf-w-86" value="如何判断灰度用户来源&amp;nbsp; GeoIP 判断用户IP&amp;nbsp; （深圳）" style="text;html=1;resizable=0;points=[];autosize=1;align=left;verticalAlign=top;spacingTop=-4;gradientColor=#d5739d;fillColor=#e6d0de;strokeColor=#996185;" vertex="1" parent="1">
          <mxGeometry x="1205" y="675.5" width="290" height="20" as="geometry" />
        </mxCell>
        <mxCell id="KBDyYr66GcoAA7yZrf-w-87" value="GM_usercenter" style="rounded=1;whiteSpace=wrap;html=1;fillColor=#bac8d3;strokeColor=#23445d;" vertex="1" parent="1">
          <mxGeometry x="1240" y="1014.5" width="90" height="30" as="geometry" />
        </mxCell>
        <mxCell id="KBDyYr66GcoAA7yZrf-w-88" value="GM_usercenter" style="rounded=1;whiteSpace=wrap;html=1;fillColor=#bac8d3;strokeColor=#23445d;" vertex="1" parent="1">
          <mxGeometry x="1117" y="1064" width="90" height="30" as="geometry" />
        </mxCell>
        <mxCell id="KBDyYr66GcoAA7yZrf-w-89" value="GM_orderinfo" style="rounded=1;whiteSpace=wrap;html=1;fillColor=#d0cee2;strokeColor=#56517e;" vertex="1" parent="1">
          <mxGeometry x="1112.5" y="900" width="90" height="30" as="geometry" />
        </mxCell>
        <mxCell id="KBDyYr66GcoAA7yZrf-w-90" value="GM_orderinfo" style="rounded=1;whiteSpace=wrap;html=1;fillColor=#d0cee2;strokeColor=#56517e;" vertex="1" parent="1">
          <mxGeometry x="1232.5" y="900" width="90" height="30" as="geometry" />
        </mxCell>
        <mxCell id="KBDyYr66GcoAA7yZrf-w-91" value="GM_orderinfo" style="rounded=1;whiteSpace=wrap;html=1;fillColor=#d0cee2;strokeColor=#56517e;" vertex="1" parent="1">
          <mxGeometry x="1114.5" y="954.5" width="90" height="30" as="geometry" />
        </mxCell>
        <mxCell id="KBDyYr66GcoAA7yZrf-w-92" value="GM_orderinfo" style="rounded=1;whiteSpace=wrap;html=1;fillColor=#d0cee2;strokeColor=#56517e;" vertex="1" parent="1">
          <mxGeometry x="1232.5" y="954.5" width="90" height="30" as="geometry" />
        </mxCell>
        <mxCell id="KBDyYr66GcoAA7yZrf-w-93" value="GM_usercenter" style="rounded=1;whiteSpace=wrap;html=1;fillColor=#bac8d3;strokeColor=#23445d;" vertex="1" parent="1">
          <mxGeometry x="1115" y="1014.5" width="90" height="30" as="geometry" />
        </mxCell>
        <mxCell id="KBDyYr66GcoAA7yZrf-w-94" value="GM_usercenter" style="rounded=1;whiteSpace=wrap;html=1;fillColor=#bac8d3;strokeColor=#23445d;" vertex="1" parent="1">
          <mxGeometry x="1240" y="1064" width="90" height="30" as="geometry" />
        </mxCell>
        <mxCell id="KBDyYr66GcoAA7yZrf-w-95" value="GM_web" style="rounded=1;whiteSpace=wrap;html=1;fillColor=#f0a30a;strokeColor=#BD7000;fontColor=#ffffff;" vertex="1" parent="1">
          <mxGeometry x="1374.5" y="756" width="90" height="30" as="geometry" />
        </mxCell>
        <mxCell id="KBDyYr66GcoAA7yZrf-w-96" value="GM_web" style="rounded=1;whiteSpace=wrap;html=1;fillColor=#f0a30a;strokeColor=#BD7000;fontColor=#ffffff;" vertex="1" parent="1">
          <mxGeometry x="1497.5" y="760" width="90" height="30" as="geometry" />
        </mxCell>
        <mxCell id="KBDyYr66GcoAA7yZrf-w-97" value="GM_web" style="rounded=1;whiteSpace=wrap;html=1;fillColor=#f0a30a;strokeColor=#BD7000;fontColor=#ffffff;" vertex="1" parent="1">
          <mxGeometry x="1372.5" y="811" width="90" height="30" as="geometry" />
        </mxCell>
        <mxCell id="KBDyYr66GcoAA7yZrf-w-98" value="GM_web" style="rounded=1;whiteSpace=wrap;html=1;fillColor=#f0a30a;strokeColor=#BD7000;fontColor=#ffffff;" vertex="1" parent="1">
          <mxGeometry x="1497.5" y="811" width="90" height="30" as="geometry" />
        </mxCell>
        <mxCell id="KBDyYr66GcoAA7yZrf-w-99" value="GM_nothigpay" style="rounded=1;whiteSpace=wrap;html=1;fillColor=#f8cecc;strokeColor=#b85450;gradientColor=#ea6b66;" vertex="1" parent="1">
          <mxGeometry x="1370" y="866" width="90" height="30" as="geometry" />
        </mxCell>
        <mxCell id="KBDyYr66GcoAA7yZrf-w-100" value="GM_nothigpay" style="rounded=1;whiteSpace=wrap;html=1;fillColor=#f8cecc;strokeColor=#b85450;gradientColor=#ea6b66;" vertex="1" parent="1">
          <mxGeometry x="1497.5" y="866" width="90" height="30" as="geometry" />
        </mxCell>
        <mxCell id="KBDyYr66GcoAA7yZrf-w-101" value="GM_nothigpay" style="rounded=1;whiteSpace=wrap;html=1;fillColor=#f8cecc;strokeColor=#b85450;gradientColor=#ea6b66;" vertex="1" parent="1">
          <mxGeometry x="1372.5" y="906" width="90" height="30" as="geometry" />
        </mxCell>
        <mxCell id="KBDyYr66GcoAA7yZrf-w-102" value="GM_nothigpay" style="rounded=1;whiteSpace=wrap;html=1;fillColor=#f8cecc;strokeColor=#b85450;gradientColor=#ea6b66;" vertex="1" parent="1">
          <mxGeometry x="1497.5" y="906" width="90" height="30" as="geometry" />
        </mxCell>
        <mxCell id="KBDyYr66GcoAA7yZrf-w-103" value="Mysql-slave" style="rounded=1;whiteSpace=wrap;html=1;fillColor=#e6d0de;strokeColor=#996185;gradientColor=#d5739d;" vertex="1" parent="1">
          <mxGeometry x="1363.5" y="1386" width="90" height="30" as="geometry" />
        </mxCell>
        <mxCell id="KBDyYr66GcoAA7yZrf-w-104" value="Mysql-Master" style="rounded=1;whiteSpace=wrap;html=1;fillColor=#f8cecc;strokeColor=#b85450;gradientColor=#ea6b66;" vertex="1" parent="1">
          <mxGeometry x="1238.5" y="1386" width="90" height="30" as="geometry" />
        </mxCell>
        <mxCell id="KBDyYr66GcoAA7yZrf-w-105" value="用户服务库" style="text;html=1;resizable=0;points=[];autosize=1;align=left;verticalAlign=top;spacingTop=-4;" vertex="1" parent="1">
          <mxGeometry x="1291" y="1351" width="80" height="20" as="geometry" />
        </mxCell>
        <mxCell id="KBDyYr66GcoAA7yZrf-w-106" value="" style="rounded=1;whiteSpace=wrap;html=1;" vertex="1" parent="1">
          <mxGeometry x="1220.5" y="1476" width="240" height="65" as="geometry" />
        </mxCell>
        <mxCell id="KBDyYr66GcoAA7yZrf-w-107" value="Mysql-slave" style="rounded=1;whiteSpace=wrap;html=1;fillColor=#e6d0de;strokeColor=#996185;gradientColor=#d5739d;" vertex="1" parent="1">
          <mxGeometry x="1360.5" y="1491" width="90" height="30" as="geometry" />
        </mxCell>
        <mxCell id="KBDyYr66GcoAA7yZrf-w-108" value="Mysql-Master" style="rounded=1;whiteSpace=wrap;html=1;fillColor=#f8cecc;strokeColor=#b85450;gradientColor=#ea6b66;" vertex="1" parent="1">
          <mxGeometry x="1235.5" y="1491" width="90" height="30" as="geometry" />
        </mxCell>
        <mxCell id="KBDyYr66GcoAA7yZrf-w-109" value="订单服务库" style="text;html=1;resizable=0;points=[];autosize=1;align=left;verticalAlign=top;spacingTop=-4;" vertex="1" parent="1">
          <mxGeometry x="1288" y="1456" width="80" height="20" as="geometry" />
        </mxCell>
        <mxCell id="KBDyYr66GcoAA7yZrf-w-110" value="3306" style="text;html=1;resizable=0;points=[];autosize=1;align=left;verticalAlign=top;spacingTop=-4;" vertex="1" parent="1">
          <mxGeometry x="1380.5" y="1348" width="40" height="20" as="geometry" />
        </mxCell>
        <mxCell id="KBDyYr66GcoAA7yZrf-w-111" value="3307" style="text;html=1;resizable=0;points=[];autosize=1;align=left;verticalAlign=top;spacingTop=-4;" vertex="1" parent="1">
          <mxGeometry x="1366.5" y="1446" width="40" height="20" as="geometry" />
        </mxCell>
        <mxCell id="KBDyYr66GcoAA7yZrf-w-112" value="物理机" style="text;html=1;resizable=0;points=[];autosize=1;align=left;verticalAlign=top;spacingTop=-4;gradientColor=#ea6b66;fillColor=#f8cecc;strokeColor=#b85450;" vertex="1" parent="1">
          <mxGeometry x="1478.5" y="1446" width="50" height="20" as="geometry" />
        </mxCell>
        <mxCell id="KBDyYr66GcoAA7yZrf-w-113" value="Zookeeper" style="rounded=1;whiteSpace=wrap;html=1;fillColor=#dae8fc;strokeColor=#6c8ebf;gradientColor=#7ea6e0;" vertex="1" parent="1">
          <mxGeometry x="736" y="1391.5" width="90" height="30" as="geometry" />
        </mxCell>
        <mxCell id="KBDyYr66GcoAA7yZrf-w-114" value="Zookeeper" style="rounded=1;whiteSpace=wrap;html=1;fillColor=#dae8fc;strokeColor=#6c8ebf;gradientColor=#7ea6e0;" vertex="1" parent="1">
          <mxGeometry x="736" y="1441.5" width="90" height="30" as="geometry" />
        </mxCell>
        <mxCell id="KBDyYr66GcoAA7yZrf-w-115" value="32GB、8核、磁盘 raid10" style="text;html=1;resizable=0;points=[];autosize=1;align=left;verticalAlign=top;spacingTop=-4;gradientColor=#ea6b66;fillColor=#f8cecc;strokeColor=#b85450;" vertex="1" parent="1">
          <mxGeometry x="1251.5" y="1328" width="150" height="20" as="geometry" />
        </mxCell>
        <mxCell id="KBDyYr66GcoAA7yZrf-w-116" value="Zookeeper" style="rounded=1;whiteSpace=wrap;html=1;fillColor=#dae8fc;strokeColor=#6c8ebf;gradientColor=#7ea6e0;" vertex="1" parent="1">
          <mxGeometry x="738.5" y="1485" width="90" height="30" as="geometry" />
        </mxCell>
        <mxCell id="KBDyYr66GcoAA7yZrf-w-117" value="Zookeeper" style="rounded=1;whiteSpace=wrap;html=1;fillColor=#dae8fc;strokeColor=#6c8ebf;gradientColor=#7ea6e0;" vertex="1" parent="1">
          <mxGeometry x="740" y="1536.5" width="90" height="30" as="geometry" />
        </mxCell>
        <mxCell id="KBDyYr66GcoAA7yZrf-w-118" value="Redis" style="rounded=1;whiteSpace=wrap;html=1;fillColor=#f5f5f5;strokeColor=#666666;gradientColor=#b3b3b3;" vertex="1" parent="1">
          <mxGeometry x="897.5" y="1391.5" width="90" height="30" as="geometry" />
        </mxCell>
        <mxCell id="KBDyYr66GcoAA7yZrf-w-119" value="Redis" style="rounded=1;whiteSpace=wrap;html=1;fillColor=#f8cecc;strokeColor=#b85450;gradientColor=#ea6b66;" vertex="1" parent="1">
          <mxGeometry x="897.5" y="1434.5" width="90" height="30" as="geometry" />
        </mxCell>
        <mxCell id="KBDyYr66GcoAA7yZrf-w-120" value="Redis" style="rounded=1;whiteSpace=wrap;html=1;fillColor=#f8cecc;strokeColor=#b85450;gradientColor=#ea6b66;" vertex="1" parent="1">
          <mxGeometry x="897.5" y="1477.5" width="90" height="30" as="geometry" />
        </mxCell>
        <mxCell id="KBDyYr66GcoAA7yZrf-w-121" value="50万UV" style="text;html=1;resizable=0;points=[];autosize=1;align=left;verticalAlign=top;spacingTop=-4;gradientColor=#ea6b66;fillColor=#f8cecc;strokeColor=#b85450;" vertex="1" parent="1">
          <mxGeometry x="1042" y="290" width="60" height="20" as="geometry" />
        </mxCell>
        <mxCell id="KBDyYr66GcoAA7yZrf-w-122" value="RabbitMQ" style="rounded=1;whiteSpace=wrap;html=1;fillColor=#ffcd28;strokeColor=#d79b00;gradientColor=#ffa500;" vertex="1" parent="1">
          <mxGeometry x="1067.5" y="1403" width="90" height="30" as="geometry" />
        </mxCell>
        <mxCell id="KBDyYr66GcoAA7yZrf-w-123" value="RabbitMQ" style="rounded=1;whiteSpace=wrap;html=1;fillColor=#ffcd28;strokeColor=#d79b00;gradientColor=#ffa500;" vertex="1" parent="1">
          <mxGeometry x="1067.5" y="1451.5" width="90" height="30" as="geometry" />
        </mxCell>
        <mxCell id="KBDyYr66GcoAA7yZrf-w-124" value="Zookeeper" style="rounded=1;whiteSpace=wrap;html=1;fillColor=#d0cee2;strokeColor=#56517e;" vertex="1" parent="1">
          <mxGeometry x="363" y="954.5" width="90" height="30" as="geometry" />
        </mxCell>
        <mxCell id="KBDyYr66GcoAA7yZrf-w-125" value="1. 系统环境初始化&lt;br&gt;2. 拉取代码、通过maven打包&lt;br&gt;3. 通过ansible 推动代码&lt;br&gt;4. 启动服务&lt;br&gt;5. 检查服务状态&lt;br&gt;&amp;nbsp; &amp;nbsp; &amp;nbsp;- Python psutil pid&lt;br&gt;&amp;nbsp; &amp;nbsp; &amp;nbsp;- Python&amp;nbsp; requests&amp;nbsp; 检查服务API返回Json 数据状态&lt;br&gt;6.&amp;nbsp; 返回是否更新成功。否则回退上一个版本&lt;br&gt;&amp;nbsp; &amp;nbsp; &amp;nbsp;" style="text;html=1;resizable=0;points=[];autosize=1;align=left;verticalAlign=top;spacingTop=-4;gradientColor=#b3b3b3;fillColor=#f5f5f5;strokeColor=#666666;" vertex="1" parent="1">
          <mxGeometry x="328.5" y="1212" width="300" height="130" as="geometry" />
        </mxCell>
        <mxCell id="KBDyYr66GcoAA7yZrf-w-126" value="通过ansible&amp;nbsp; host文件确定环境信息" style="rounded=1;whiteSpace=wrap;html=1;gradientColor=#ea6b66;fillColor=#f8cecc;strokeColor=#b85450;" vertex="1" parent="1">
          <mxGeometry x="106" y="1268" width="134" height="42" as="geometry" />
        </mxCell>
        <mxCell id="KBDyYr66GcoAA7yZrf-w-127" value="UAT_hosts&lt;br&gt;[&lt;span style=&quot;text-align: center ; white-space: normal&quot;&gt;GM_gateway&lt;/span&gt;]&lt;br&gt;ip或者域名&lt;br&gt;" style="text;html=1;resizable=0;points=[];autosize=1;align=left;verticalAlign=top;spacingTop=-4;gradientColor=#ffd966;fillColor=#fff2cc;strokeColor=#d6b656;" vertex="1" parent="1">
          <mxGeometry x="318" y="1371.5" width="90" height="40" as="geometry" />
        </mxCell>
        <mxCell id="KBDyYr66GcoAA7yZrf-w-128" value="huidu_hosts&lt;br&gt;[&lt;span style=&quot;text-align: center ; white-space: normal&quot;&gt;GM_gateway&lt;/span&gt;]&lt;br&gt;ip或者域名" style="text;html=1;resizable=0;points=[];autosize=1;align=left;verticalAlign=top;spacingTop=-4;gradientColor=#ffd966;fillColor=#fff2cc;strokeColor=#d6b656;" vertex="1" parent="1">
          <mxGeometry x="680" y="1212" width="90" height="40" as="geometry" />
        </mxCell>
        <mxCell id="KBDyYr66GcoAA7yZrf-w-129" value="pro_hosts&lt;br&gt;[&lt;span style=&quot;text-align: center ; white-space: normal&quot;&gt;GM_gateway&lt;/span&gt;]&lt;br&gt;ip或者域名" style="text;html=1;resizable=0;points=[];autosize=1;align=left;verticalAlign=top;spacingTop=-4;gradientColor=#ffa500;fillColor=#ffcd28;strokeColor=#d79b00;" vertex="1" parent="1">
          <mxGeometry x="1401" y="1165" width="90" height="40" as="geometry" />
        </mxCell>
        <mxCell id="KBDyYr66GcoAA7yZrf-w-130" value="1. 系统环境初始化&lt;br&gt;3. 通过ansible 推动&amp;nbsp; 预发布编译完成的jar包&lt;br&gt;4. 启动服务&lt;br&gt;5. 检查服务状态&lt;br&gt;&amp;nbsp; &amp;nbsp; &amp;nbsp;- Python psutil pid&lt;br&gt;&amp;nbsp; &amp;nbsp; &amp;nbsp;- Python&amp;nbsp; requests&amp;nbsp; 检查服务API返回Json 数据状态&lt;br&gt;6.&amp;nbsp; 返回是否更新成功。否则回退上一个版本&lt;br&gt;&amp;nbsp; &amp;nbsp; &amp;nbsp;" style="text;html=1;resizable=0;points=[];autosize=1;align=left;verticalAlign=top;spacingTop=-4;gradientColor=#b3b3b3;fillColor=#f5f5f5;strokeColor=#666666;" vertex="1" parent="1">
          <mxGeometry x="673" y="1095" width="300" height="110" as="geometry" />
        </mxCell>
        <mxCell id="KBDyYr66GcoAA7yZrf-w-131" value="参数化构建&amp;nbsp; &amp;nbsp;项目名&amp;nbsp; 环境&amp;nbsp; 版本&lt;br&gt;1. 系统环境初始化&lt;br&gt;3. 通过ansible 推动&amp;nbsp; 预发布编译完成的jar包&lt;br&gt;4. 启动服务&lt;br&gt;5. 检查服务状态&lt;br&gt;&amp;nbsp; &amp;nbsp; &amp;nbsp;- Python psutil pid&lt;br&gt;&amp;nbsp; &amp;nbsp; &amp;nbsp;- Python&amp;nbsp; requests&amp;nbsp; 检查服务API返回Json 数据状态&lt;br&gt;6.&amp;nbsp; 返回是否更新成功。否则回退上一个版本&lt;br&gt;&amp;nbsp; &amp;nbsp; &amp;nbsp;" style="text;html=1;resizable=0;points=[];autosize=1;align=left;verticalAlign=top;spacingTop=-4;gradientColor=#b3b3b3;fillColor=#f5f5f5;strokeColor=#666666;" vertex="1" parent="1">
          <mxGeometry x="1076" y="1122.5" width="300" height="130" as="geometry" />
        </mxCell>
        <mxCell id="KBDyYr66GcoAA7yZrf-w-132" value="交换机" style="rounded=1;whiteSpace=wrap;html=1;fillColor=#f8cecc;strokeColor=#b85450;" vertex="1" parent="1">
          <mxGeometry x="1164.5" y="540" width="90" height="30" as="geometry" />
        </mxCell>
        <mxCell id="KBDyYr66GcoAA7yZrf-w-133" value="路由器" style="rounded=1;whiteSpace=wrap;html=1;fillColor=#f8cecc;strokeColor=#b85450;" vertex="1" parent="1">
          <mxGeometry x="1293.5" y="540" width="90" height="30" as="geometry" />
        </mxCell>
        <mxCell id="KBDyYr66GcoAA7yZrf-w-134" value="防火墙" style="rounded=1;whiteSpace=wrap;html=1;fillColor=#f8cecc;strokeColor=#b85450;" vertex="1" parent="1">
          <mxGeometry x="1417.5" y="540" width="90" height="30" as="geometry" />
        </mxCell>
        <mxCell id="KBDyYr66GcoAA7yZrf-w-135" value="外网出口IP" style="text;html=1;resizable=0;points=[];autosize=1;align=left;verticalAlign=top;spacingTop=-4;gradientColor=#ea6b66;fillColor=#f8cecc;strokeColor=#b85450;" vertex="1" parent="1">
          <mxGeometry x="1015" y="470" width="70" height="20" as="geometry" />
        </mxCell>
        <mxCell id="KBDyYr66GcoAA7yZrf-w-136" value="IDC机房的人员" style="text;html=1;resizable=0;points=[];autosize=1;align=left;verticalAlign=top;spacingTop=-4;gradientColor=#ffd966;fillColor=#fff2cc;strokeColor=#d6b656;" vertex="1" parent="1">
          <mxGeometry x="1000" y="522.5" width="100" height="20" as="geometry" />
        </mxCell>
      </root>
    </mxGraphModel>
  </diagram>
</mxfile>
